<svg xmlns="http://www.w3.org/2000/svg" width="165" height="47" viewBox="0 0 165 47"><g><g><g><path fill="#fff" d="M115.03 0h49.875v47h-49.876zM57.514 0h49.875v47H57.515zM0 0h49.875v47H0z"/></g><g><path fill="#2445a6" d="M89.328 30.374c0 5.106-6.355 4.804-6.355 4.804h-6.355v-9.23h6.355c6.544-.037 6.355 4.426 6.355 4.426zm-12.71-18.497h4.842c5.03.265 4.842 4.01 4.842 4.01 0 4.652-5.56 4.728-5.56 4.728h-4.124zm11.537 10.554s4.35-1.854 4.312-6.771c0 0 .662-8.057-10.014-9.04H70.604v33.778h13.58s11.347.038 11.347-9.532c0 0 .265-6.506-7.376-8.435z"/></g><g><path fill="#2445a6" d="M31.832 30.374c0 5.106-6.355 4.804-6.355 4.804h-6.355v-9.23h6.355c6.544-.037 6.355 4.426 6.355 4.426zm-12.71-18.497h4.842c5.031.265 4.842 4.01 4.842 4.01 0 4.652-5.56 4.728-5.56 4.728h-4.124zM30.66 22.431s4.35-1.854 4.312-6.771c0 0 .661-8.057-10.015-9.04H13.108v33.778h13.58s11.348.038 11.348-9.532c0 0 .264-6.506-7.376-8.435z"/></g><g><path fill="#2445a6" d="M154.73 9.04v6.242s-6.091-3.745-12.824-3.82c0 0-12.558-.246-13.125 12.038 0 0-.454 11.3 12.974 11.943 0 0 5.636.681 13.277-4.199v6.469s-10.25 6.09-22.128 1.4c0 0-9.986-3.65-10.365-15.613 0 0-.416-12.303 12.899-16.388 0 0 3.556-1.363 9.948-.757 0 0 3.82.379 9.343 2.686z"/></g></g></g></svg>