<svg xmlns="http://www.w3.org/2000/svg" width="242" height="95" viewBox="0 0 242 95"><g><g><g><text dominant-baseline="text-before-edge" style="font-kerning:normal" fill="#f56441" font-family="'RoadRadio','RoadRadio-Bold'" font-size="34" font-style="none" font-weight="700" transform="translate(84 28)"><tspan letter-spacing="-.68">T</tspan><tspan>ORNADO</tspan></text></g></g><g><g><text dominant-baseline="text-before-edge" style="font-kerning:normal" fill="#f56441" font-family="'RoadRadio','RoadRadio-Bold'" font-size="34" font-style="none" font-weight="700" letter-spacing="1.36" transform="translate(83 56)"><tspan>lea</tspan><tspan letter-spacing="1.02">d</tspan><tspan>s</tspan></text></g></g><g><path fill="#f56441" d="M46.89 57.713C59.064 55.72 69.926 45.75 73.27 41.398c.498.733.747 1.202 1.081 1.62.334.42.499 1.117 1.45 1.222 5.22-10.817 6.207-21.863 2.045-33.861-4.776 6.684-10.573 11.465-17.098 15.298.404 1.191 1.466 1.665 1.695 2.672-4.64 4.56-13.558 9.366-21.095 11.4-11.565 3.11-23.01 3.444-34.519.603-2.198-.544-3.893-1.326-6.829-2.647 1.256 7.272 22.635 22.98 46.89 20.008"/></g><g><path fill="#f56441" d="M39.135 29.515C50.52 25.467 59.88 19.87 64.96 14.56c-4.486 3.723-11.235 7.477-19.17 10.273-15.673 5.568-29.999 5.508-32.007-.144-2.01-5.653 9.067-14.74 24.734-20.313C46.457 1.556 54.049.18 59.87.245 52.593-.652 41.796.913 30.41 4.96 11.614 11.645-1.669 22.551.743 29.326c2.412 6.774 19.594 6.873 38.392.189z"/></g><g><path fill="#f56441" d="M34.92 24.413c-.99.406-1.98.772-2.972 1.098a49.847 49.847 0 0 0 9.358-2.845c10.247-4.167 17.33-10.578 15.82-14.27-1.511-3.693-11.026-3.298-21.288.87a50.207 50.207 0 0 0-8.68 4.553c.922-.451 1.884-.88 2.884-1.286 9.098-3.724 17.567-4.08 18.93-.8 1.364 3.282-4.948 8.956-14.052 12.68z"/></g><g><path fill="#f56441" d="M46.91 80.493c12.462-.718 25.762-17.795 24.795-26.264C65.364 63.296 48.74 67.877 43.51 68.1a45.545 45.545 0 0 1-22.685-4.665 26.16 26.16 0 0 1-4.077-2.737c-.245 4.945 11.464 18.364 27.754 19.974"/></g><g><path fill="#f56441" d="M51.367 94.949c6.056-.648 12.103-9.277 11.43-13.374-2.876 4.54-10.852 7.168-13.384 7.392a22.177 22.177 0 0 1-11.146-1.73 12.457 12.457 0 0 1-2.053-1.23c0 2.412 6.011 8.658 13.987 9.051"/></g></g></svg>