<svg xmlns="http://www.w3.org/2000/svg" width="104" height="103" viewBox="0 0 104 103"><defs><clipPath id="s7y8a"><path fill="#fff" d="M51.718 102.564c-28.323 0-51.282-22.96-51.282-51.282C.436 22.96 23.396 0 51.718 0 80.04 0 103 22.96 103 51.282c0 28.323-22.96 51.282-51.282 51.282z"/></clipPath></defs><g><g><path fill="none" stroke="#fff" stroke-miterlimit="50" stroke-width="2" d="M51.718 102.564c-28.323 0-51.282-22.96-51.282-51.282C.436 22.96 23.396 0 51.718 0 80.04 0 103 22.96 103 51.282c0 28.323-22.96 51.282-51.282 51.282z" clip-path="url(&quot;#s7y8a&quot;)"/></g><g><path fill="#fff" d="M58.437 51.082c0 .41-.156.82-.469 1.133l-9.838 9.838a1.602 1.602 0 1 1-2.266-2.266l8.706-8.705-8.705-8.705a1.602 1.602 0 0 1 2.266-2.265l9.838 9.837c.312.313.468.723.468 1.133z"/></g></g></svg>