<svg xmlns="http://www.w3.org/2000/svg" width="104" height="103" viewBox="0 0 104 103"><defs><clipPath id="ezbha"><path fill="#fff" d="M52.282 0c28.323 0 51.282 22.96 51.282 51.282 0 28.323-22.96 51.282-51.282 51.282C23.96 102.564 1 79.604 1 51.282 1 22.96 23.96 0 52.282 0z"/></clipPath></defs><g><g><path fill="none" stroke="#fff" stroke-miterlimit="50" stroke-width="2" d="M52.282 0c28.323 0 51.282 22.96 51.282 51.282 0 28.323-22.96 51.282-51.282 51.282C23.96 102.564 1 79.604 1 51.282 1 22.96 23.96 0 52.282 0z" clip-path="url(&quot;#ezbha&quot;)"/></g><g><path fill="#f5f5f5" d="M45.563 51.482c0-.41.156-.82.469-1.132l9.838-9.838a1.602 1.602 0 1 1 2.266 2.266l-8.706 8.704 8.705 8.705a1.602 1.602 0 0 1-2.266 2.266l-9.838-9.838a1.598 1.598 0 0 1-.468-1.133z"/></g></g></svg>