<svg xmlns="http://www.w3.org/2000/svg" width="177" height="177" viewBox="0 0 177 177"><g><g><path fill="#ee573c" d="M157.778 33.785h5.457a3.448 3.448 0 0 0 0-6.895h-13.1a3.45 3.45 0 0 0-3.448 3.447v13.1a3.449 3.449 0 0 0 6.896 0v-3.793c10.46 14.005 16.146 30.996 16.146 48.668 0 44.893-36.524 81.417-81.417 81.417-44.894 0-81.418-36.524-81.418-81.417S43.418 6.895 88.312 6.895c3.32 0 6.662.201 9.932.6A3.448 3.448 0 1 0 99.075.65 89.57 89.57 0 0 0 88.313 0C64.723 0 42.546 9.186 25.866 25.866S0 64.723 0 88.312s9.185 45.766 25.866 62.446c16.68 16.68 38.857 25.866 62.446 25.866s45.766-9.186 62.446-25.866 25.866-38.857 25.866-62.446c0-19.906-6.65-39.015-18.846-54.527z"/></g><g><path fill="#fff" d="M37.395 52.06a3.45 3.45 0 0 0-4.758 1.069c-7.87 12.43-11.354 27.38-9.81 42.094 1.567 14.93 8.288 29.012 18.925 39.649 12.836 12.838 29.698 19.256 46.56 19.256 16.862 0 33.724-6.418 46.56-19.256 25.674-25.673 25.674-67.446 0-93.12-10.62-10.62-24.68-17.338-39.585-18.917-14.688-1.556-29.62 1.9-42.045 9.732a3.447 3.447 0 1 0 3.676 5.833c23.421-14.762 53.472-11.38 73.078 8.228 22.985 22.985 22.985 60.383 0 83.368-22.985 22.986-60.383 22.986-83.368 0-19.336-19.335-22.77-50.112-8.164-73.178a3.45 3.45 0 0 0-1.069-4.758z"/></g><g><path fill="#f7c924" d="M131.95 73.443c0-8.205 6.652-14.857 14.857-14.857 8.205 0 14.856 6.652 14.856 14.857 0 8.204-6.651 14.856-14.856 14.856s-14.856-6.652-14.856-14.856z"/></g><g><path fill="#ee583f" d="M23.726 119.676c0-6.671 5.407-12.08 12.079-12.08 6.67 0 12.078 5.409 12.078 12.08 0 6.67-5.407 12.079-12.079 12.079-6.67 0-12.078-5.408-12.078-12.08z"/></g><g><path fill="#fff" d="M100.468 93.184l-12.17 7.301V88.821l12.17-7.301zm-13.69-6.997l-4.65-2.79 12.254-7.354 4.649 2.79zm-1.522 14.297l-12.17-7.303V81.52l12.17 7.302zm1.521-29.004l4.649 2.79-12.254 7.353-4.648-2.79zm16.679 6.957a1.155 1.155 0 0 0-.056-.137 1.824 1.824 0 0 0-.093-.223 1.841 1.841 0 0 0-.105-.14 1.455 1.455 0 0 0-.132-.172 1.51 1.51 0 0 0-.142-.111 1.823 1.823 0 0 0-.152-.125l-15.211-9.126a1.518 1.518 0 0 0-1.567 0L70.787 77.53c-.056.038-.11.08-.16.125a1.706 1.706 0 0 0-.143.111c-.046.054-.09.11-.13.171a1.428 1.428 0 0 0-.107.14c-.035.071-.065.144-.09.22a1.197 1.197 0 0 0-.058.144c-.037.128-.054.26-.054.393v15.211c0 .534.28 1.029.738 1.304l15.21 9.126.018.008.016.012c.08.042.164.076.25.102.034.013.068.033.105.043.258.071.532.071.79 0 .037-.01.071-.03.105-.043.087-.026.17-.06.25-.102l.016-.012.018-.008 15.21-9.126a1.52 1.52 0 0 0 .739-1.304V78.833a1.46 1.46 0 0 0-.054-.396z"/></g><g><path fill="#fff" d="M87.994 41.414a1.576 1.576 0 0 0-2.434 0l-4.563 6.084 2.434 1.826 1.825-2.434v12.168h3.042V46.89l1.825 2.434 2.434-1.826z"/></g><g><path fill="#fff" d="M90.123 123.554l-1.825 2.434v-12.17h-3.042v12.17l-1.825-2.434-2.434 1.825 4.563 6.084a1.521 1.521 0 0 0 2.434 0l4.563-6.084z"/></g><g><path fill="#fff" d="M85.256 65.143v-3.042h3.042v3.042z"/></g><g><path fill="#fff" d="M85.256 110.777v-3.043h3.042v3.043z"/></g><g><path fill="#fff" d="M59.398 84.918h-12.17l2.434-1.826-1.825-2.433-6.085 4.563a1.52 1.52 0 0 0 0 2.434l6.085 4.563 1.825-2.434-2.434-1.825h12.17z"/></g><g><path fill="#fff" d="M132.106 85.526a1.548 1.548 0 0 0-.304-.304l-6.085-4.563-1.825 2.433 2.434 1.826h-12.17v3.042h12.17l-2.434 1.825 1.825 2.434 6.085-4.563a1.522 1.522 0 0 0 .304-2.13z"/></g><g><path fill="#fff" d="M62.44 87.96v-3.042h3.042v3.042z"/></g><g><path fill="#fff" d="M108.073 87.96v-3.042h3.042v3.042z"/></g><g><path fill="#fff" d="M68.492 66.003l-8.603-8.604 3.01.43.43-3.012-7.527-1.081a1.52 1.52 0 0 0-1.729 1.727l1.076 7.528 3.011-.43-.428-3.01 8.602 8.602z"/></g><g><path fill="#fff" d="M119.478 117.415l-1.076-7.529-3.014.434.43 3.01-8.604-8.603-2.152 2.151 8.604 8.604-3.007-.432-.431 3.012 7.528 1.075a1.522 1.522 0 0 0 1.722-1.722z"/></g><g><path fill="#fff" d="M70.644 72.457l-2.151-2.151 2.15-2.151 2.152 2.151z"/></g><g><path fill="#fff" d="M102.912 104.723l-2.151-2.151 2.15-2.151 2.152 2.15z"/></g><g><path fill="#fff" d="M59.882 115.478l8.604-8.604-2.145-2.15-8.604 8.604.43-3.01-3.012-.432-1.082 7.529a1.522 1.522 0 0 0 1.722 1.722l7.529-1.075-.43-3.012z"/></g><g><path fill="#fff" d="M119.044 54.171c-.337-.34-.817-.5-1.291-.43l-7.527 1.076.43 3.012 3.01-.43-8.604 8.604 2.152 2.15 8.603-8.602-.43 3.007 3.013.433 1.075-7.528a1.522 1.522 0 0 0-.431-1.292z"/></g><g><path fill="#fff" d="M70.645 104.724l-2.151-2.15 2.15-2.152 2.152 2.151z"/></g><g><path fill="#fff" d="M102.912 72.452l-2.151-2.151 2.151-2.152 2.151 2.152z"/></g></g></svg>