<svg xmlns="http://www.w3.org/2000/svg" width="182" height="180" viewBox="0 0 182 180"><g><g><path fill="#ee573c" d="M154.138 157.729a4.553 4.553 0 0 0-6.299-1.33c-14.56 9.485-31.484 14.497-48.941 14.497-49.512 0-89.794-40.28-89.794-89.793 0-17.98 5.294-35.326 15.31-50.166a4.553 4.553 0 0 0-7.548-5.092C5.833 42.195 0 61.303 0 81.104c0 26.416 10.288 51.25 28.967 69.93C47.646 169.715 72.482 180 98.897 180c19.227 0 37.869-5.522 53.912-15.972a4.552 4.552 0 0 0 1.33-6.299z"/></g><g><path fill="#f7c924" d="M169.43 143.927a4.551 4.551 0 0 0-6.437.063l-.15.152a4.553 4.553 0 0 0 6.461 6.413l.189-.19a4.552 4.552 0 0 0-.062-6.438z"/></g><g><path fill="#f7c924" d="M35.683 10.896a4.582 4.582 0 0 0-3.217-1.334 4.583 4.583 0 0 0-3.219 1.334 4.586 4.586 0 0 0-1.333 3.218 4.58 4.58 0 0 0 1.333 3.219 4.587 4.587 0 0 0 3.219 1.333 4.586 4.586 0 0 0 3.217-1.333 4.587 4.587 0 0 0 1.334-3.22 4.58 4.58 0 0 0-1.334-3.217z"/></g><g><path fill="#fff" d="M101.686 160.2c-44.169 0-80.101-35.932-80.101-80.099C21.585 35.932 57.517 0 101.686 0c22.019 0 42.548 8.751 57.8 24.647l-4.28 4.11c-14.125-14.722-33.133-22.824-53.52-22.824-40.896 0-74.168 33.271-74.168 74.168 0 40.896 33.272 74.167 74.168 74.167 40.896 0 74.168-33.271 74.168-74.167 0-15.436-4.697-30.232-13.58-42.79l4.846-3.423c9.594 13.561 14.667 29.54 14.667 46.213 0 44.167-35.932 80.1-80.101 80.1z"/></g><g><path fill="#fff" d="M59.087 112.87h3.277v-3.278h-3.277a3.277 3.277 0 0 1-3.276-3.276V40.779a3.276 3.276 0 0 1 3.276-3.276h72.09a3.276 3.276 0 0 1 3.277 3.276v3.277h3.277V40.78a6.554 6.554 0 0 0-6.554-6.553h-72.09a6.554 6.554 0 0 0-6.553 6.553v65.537a6.554 6.554 0 0 0 6.553 6.553z"/></g><g><path fill="#fff" d="M59.087 40.78h3.277v3.276h-3.277z"/></g><g><path fill="#fff" d="M65.641 40.78h3.277v3.276H65.64z"/></g><g><path fill="#fff" d="M72.195 40.78h3.276v3.276h-3.276z"/></g><g><path fill="#fff" d="M68.918 53.887a3.276 3.276 0 0 1 3.277-3.277h72.09a3.276 3.276 0 0 1 3.276 3.277v65.536a3.277 3.277 0 0 1-3.276 3.277h-72.09a3.277 3.277 0 0 1-3.277-3.277zm-3.277 65.536a6.554 6.554 0 0 0 6.554 6.554h72.09a6.554 6.554 0 0 0 6.553-6.554V53.887a6.554 6.554 0 0 0-6.553-6.554h-72.09a6.554 6.554 0 0 0-6.554 6.554z"/></g><g><path fill="#fff" d="M72.195 53.887h3.276v3.276h-3.276z"/></g><g><path fill="#fff" d="M78.748 53.887h3.277v3.276h-3.277z"/></g><g><path fill="#fff" d="M85.302 53.887h3.277v3.276h-3.277z"/></g><g><path fill="#fff" d="M72.195 60.44h72.09v3.277h-72.09z"/></g><g><path fill="#fff" d="M72.195 68.632h13.107v3.277H72.195z"/></g><g><path fill="#fff" d="M72.195 75.186h9.83v3.277h-9.83z"/></g><g><path fill="#fff" d="M131.177 96.485h-3.921c-.748 0-1.4.505-1.587 1.229a17.943 17.943 0 0 1-1.916 4.633 1.638 1.638 0 0 0 .252 1.99l2.77 2.772-4.633 4.636-2.772-2.773a1.64 1.64 0 0 0-1.992-.252 17.905 17.905 0 0 1-4.633 1.918 1.638 1.638 0 0 0-1.228 1.585v3.923h-6.554v-3.923c0-.747-.505-1.4-1.229-1.585a17.941 17.941 0 0 1-4.632-1.918 1.638 1.638 0 0 0-1.991.252l-2.773 2.773-4.632-4.636 2.769-2.772a1.637 1.637 0 0 0 .253-1.99 17.903 17.903 0 0 1-1.918-4.633 1.637 1.637 0 0 0-1.585-1.229h-3.923v-6.554h3.923c.747 0 1.4-.506 1.585-1.228a17.73 17.73 0 0 1 1.066-3.003c.256-.561.54-1.108.852-1.639a1.64 1.64 0 0 0-.253-1.99l-2.77-2.771 4.633-4.636 2.773 2.773a1.638 1.638 0 0 0 1.99.252 17.934 17.934 0 0 1 4.633-1.918 1.637 1.637 0 0 0 1.229-1.585V70.27h6.554v3.921c0 .747.506 1.4 1.228 1.587a17.852 17.852 0 0 1 4.633 1.916 1.64 1.64 0 0 0 1.992-.252l2.772-2.773 4.633 4.636-2.77 2.772a1.64 1.64 0 0 0-.252 1.991 17.906 17.906 0 0 1 1.916 4.634 1.64 1.64 0 0 0 1.587 1.228h3.921zm3.277-8.192c0-.906-.732-1.638-1.638-1.638h-4.33a20.863 20.863 0 0 0-1.296-3.13l3.062-3.06a1.64 1.64 0 0 0 0-2.318l-6.951-6.951a1.64 1.64 0 0 0-2.318 0l-3.06 3.06a21.043 21.043 0 0 0-3.13-1.294v-4.33c0-.906-.732-1.638-1.638-1.638h-9.83c-.905 0-1.639.732-1.639 1.638v4.33a21.157 21.157 0 0 0-3.13 1.295l-3.06-3.061a1.639 1.639 0 0 0-2.316 0l-6.952 6.951c-.64.641-.64 1.678 0 2.317l3.06 3.061a21.319 21.319 0 0 0-1.295 3.13h-4.33c-.904 0-1.638.732-1.638 1.638v9.83c0 .905.734 1.639 1.639 1.639h4.33c.347 1.076.78 2.123 1.295 3.13l-3.06 3.06c-.64.639-.64 1.676 0 2.316l6.951 6.952c.64.64 1.676.64 2.317 0l3.06-3.06c1.007.514 2.054.946 3.129 1.293v4.331c0 .905.734 1.639 1.638 1.639h9.83c.907 0 1.64-.734 1.64-1.639v-4.33a21.178 21.178 0 0 0 3.129-1.294l3.06 3.06c.64.64 1.677.64 2.318 0l6.951-6.952a1.64 1.64 0 0 0 0-2.317l-3.062-3.06a20.93 20.93 0 0 0 1.296-3.13h4.33c.906 0 1.638-.733 1.638-1.637z"/></g><g><path fill="#fff" d="M134.454 116.146h9.83v3.277h-9.83z"/></g></g></svg>