<svg xmlns="http://www.w3.org/2000/svg" width="180" height="180" viewBox="0 0 180 180"><g><g><path fill="#f7c924" d="M5.808 90H0C0 40.373 40.372 0 90 0v5.806c-46.422 0-84.193 37.771-84.193 84.195z"/></g><g><path fill="#ee573c" d="M90 180v-5.806c46.423 0 84.194-37.771 84.194-84.193H180c0 49.627-40.372 89.999-90 89.999z"/></g><g><path fill="#fff" d="M90 168.387c-43.223 0-78.386-35.163-78.386-78.386 0-43.224 35.163-78.388 78.387-78.388 21.547 0 41.637 8.565 56.563 24.12l-4.19 4.021C128.553 25.348 109.953 17.42 90.002 17.42 49.98 17.42 17.42 49.98 17.42 90c0 40.021 32.559 72.58 72.58 72.58 40.02 0 72.58-32.559 72.58-72.58 0-15.105-4.595-29.583-13.288-41.873l4.741-3.35c9.39 13.27 14.353 28.907 14.353 45.224 0 43.223-35.163 78.386-78.386 78.386z"/></g><g><path fill="#fff" d="M145.162 40.645h-23.225V34.84h20.322V14.516h5.806v23.226a2.9 2.9 0 0 1-2.903 2.904z"/></g><g><path fill="#fff" d="M55.526 68.33l-.002-.371c0-.836.031-1.66.09-2.48l-3.383-.246c-.064.9-.098 1.807-.098 2.726l.002.413zm2.795-13.882l-3.11-1.351a36.506 36.506 0 0 0-1.13 2.928l3.213 1.087c.305-.9.651-1.797 1.027-2.664zm-1.822 5.402l-3.293-.81a37.355 37.355 0 0 0-.619 3.077l3.35.53a33.38 33.38 0 0 1 .562-2.797zm66.433 2.796l3.35-.529a36.903 36.903 0 0 0-.618-3.077l-3.293.81c.226.914.413 1.855.561 2.796zm1.857-6.62a38.006 38.006 0 0 0-1.13-2.928l-3.109 1.352c.376.865.72 1.762 1.026 2.662zm-1.533 9.453c.06.82.09 1.644.09 2.48l-.002.37 3.392.043v-.413c0-.919-.033-1.826-.097-2.726l-3.383.246zM40.264 84.913h-3.391v3.392h3.391zM79.262 67.96c0-3.537 1.796-6.77 4.804-8.643l-1.795-2.878a13.498 13.498 0 0 0-6.4 11.52 13.49 13.49 0 0 0 3.875 9.492l2.423-2.373a10.108 10.108 0 0 1-2.907-7.118zm7.147-9.716a10.175 10.175 0 0 1 3.026-.458v-3.39c-1.374 0-2.73.204-4.032.61zm3.026 26.67c-9.35 0-16.956-7.605-16.956-16.954 0-9.35 7.607-16.956 16.956-16.956 9.35 0 16.956 7.606 16.956 16.956 0 9.349-7.607 16.954-16.956 16.954zm38.998 0l9.041 6.783-9.041 6.782v-3.391H89.435c-14.957 0-27.129-12.17-27.129-27.128 0-14.959 12.17-27.13 27.129-27.13 14.959 0 27.129 12.171 27.129 27.13 0 6.162-2.138 12.146-6.002 16.954h-9.906c5.494-3.647 9.126-9.882 9.126-16.954 0-11.22-9.127-20.347-20.347-20.347-11.219 0-20.346 9.127-20.346 20.347 0 11.219 9.127 20.346 20.346 20.346h38.998zM92.826 101.87h-6.782v-3.391h6.782zm-10.173 6.782v-3.39h13.565v3.39zm13.565 23.737a6.79 6.79 0 0 1-6.783 6.783 6.789 6.789 0 0 1-6.782-6.783v-20.346h13.565zm28.823-47.475h-10.276c3.352-5.002 5.19-10.9 5.19-16.954 0-16.829-13.692-30.52-30.52-30.52s-30.52 13.691-30.52 30.52c0 6.27 1.906 12.102 5.162 16.954H43.656v3.392h23.096a30.668 30.668 0 0 0 8.766 6.782H36.873v3.39h45.78v3.392h-3.391v6.782h-3.391v3.391h3.391v20.346c0 5.611 4.562 10.175 10.173 10.175 5.61 0 10.173-4.564 10.173-10.175v-20.346h3.391v-3.391h-3.391v-6.782h-3.39v-3.391h28.823v6.783l18.087-13.565-18.087-13.564z"/></g></g></svg>