<svg xmlns="http://www.w3.org/2000/svg" width="153" height="46" viewBox="0 0 153 46"><g><g><g><g><g><path fill="#fff" d="M56.756 2.882C55.43 1.044 53.258.225 51.28.225c-2.795 0-5.397 1.431-6.546 4.502C43.406 1.66 41.55.225 38.589.225c-2.918 0-5.082 1.431-6.238 4.502h-.08V1.55a.887.887 0 0 0-.86-.812h-4.414c-.504 0-.913.388-.913.874v24.3c.032.435.395.772.848.801h4.737c.504 0 .91-.395.91-.877V12.951c0-2.81-.138-6.698 3.262-6.698 3.364 0 2.926 3.987 2.926 6.698v12.882c0 .468.377.841.855.878h4.727c.51 0 .913-.395.913-.878V12.951c0-1.38-.043-3.433.439-4.658.485-1.225 1.685-1.99 2.83-1.99 1.374 0 2.433.46 2.784 2.092.225.975.134 3.53.134 4.556v12.882c0 .468.381.841.852.878h4.73c.504 0 .91-.395.91-.878l.008-15.332c0-2.606.304-5.575-1.193-7.62z"/></g></g></g><g><g><g><path fill="#fff" d="M119.167 22.212c-3.712 0-3.672-6.34-3.672-9.308 0-2.961.225-7.717 3.708-7.717 1.5 0 2.57.66 3.095 2.352.624 1.943.71 4.394.71 6.445.015 3.117-.162 8.228-3.841 8.228zm0-21.984c-6.851 0-10.65 5.883-10.65 13.444 0 7.518 3.752 13.55 10.65 13.55 6.626 0 10.827-5.88 10.827-13.292.018-7.67-3.795-13.702-10.827-13.702z"/></g></g></g><g><g><g><path fill="#fff" d="M76.025 15.111c0 1.845.05 3.382-.888 5.02-.747 1.335-1.946 2.15-3.266 2.15-1.823 0-2.889-1.38-2.889-3.429 0-4.034 3.618-4.766 7.043-4.766zm8.431 7.16c-.862-1.204-1.776-2.176-1.776-4.39V10.5c0-3.121.214-5.992-2.088-8.145C78.776.613 75.764 0 73.462 0c-4.501 0-9.536 1.678-10.587 7.246-.113.594.315.906.703.993l4.589.493c.427-.018.743-.439.826-.866.388-1.918 2.001-2.842 3.806-2.842.975 0 2.08.359 2.65 1.232.67.972.58 2.306.58 3.43l-.004.6c-2.744.316-6.332.516-8.902 1.647-2.969 1.28-5.046 3.896-5.046 7.738 0 4.92 3.096 7.38 7.08 7.38 3.363 0 5.212-.794 7.807-3.443.855 1.247 1.142 1.856 2.715 3.16.359.19.812.167 1.124-.108l.007.007c.946-.834 2.66-2.338 3.625-3.143.38-.315.326-.83.021-1.254z"/></g></g></g><g><g><g><path fill="#fff" d="M151.76 3.088C150.43.993 148.346.225 146.225.221c-3.266 0-5.132 1.584-6.452 4.908h-.076V1.414a.908.908 0 0 0-.848-.682h-4.39c-.482 0-.87.348-.913.794l.007 24.307c0 .468.374.849.856.885h4.708c.511 0 .921-.395.928-.885V12.755c0-1.642.084-3.117.758-4.603.525-1.17 1.58-1.943 2.74-1.943 3.262 0 2.95 3.89 2.95 6.546v13.198c.037.41.41.729.834.768h4.752a.925.925 0 0 0 .921-.768V10.657c0-2.353 0-5.619-1.24-7.569z"/></g></g></g><g><g><g><path fill="#fff" d="M105.41 20.135c-2.718-1.53-5.875-1.979-8.876-1.903L104.61 6.72c.743-1.036 1.167-1.685 1.167-2.186V1.56c0-.522-.395-.881-.899-.881h-15.56a.852.852 0 0 0-.878.88v3.477c0 .518.391.873.899.873h8.134l-9.345 13.397c-.565.86-.573 1.824-.573 2.389v3.527c0 .507.577 1.09 1.113.794 5.296-2.81 11.646-2.53 16.431-.022.595.304 1.146-.29 1.146-.798v-3.711c-.055-.497-.218-1.008-.834-1.349z"/></g></g></g><g><g><g><path fill="#fff" d="M102.402 28.933c-.967-1.2-9.304-2.233-14.39 1.337-.776.547-.649 1.305.225 1.203 2.86-.337 9.24-1.101 10.37.348 1.135 1.454-1.265 7.457-2.341 10.132-.33.812.373 1.138 1.105.529 4.781-3.98 6.006-12.339 5.031-13.55z"/></g></g></g><g><g><g><path fill="#fff" d="M93.63 33.964c-9.96 4.23-20.795 6.267-30.654 6.267-14.597 0-28.744-3.998-40.173-10.653-.997-.587-1.74.438-.91 1.189 10.595 9.573 24.598 15.329 40.152 15.329 11.098 0 23.977-3.491 32.872-10.044 1.468-1.088.218-2.719-1.287-2.088z"/></g></g></g><g><g><g><path fill="#fff" d="M13.952 15.111c0 1.845.05 3.382-.885 5.02-.75 1.335-1.943 2.15-3.277 2.15-1.816 0-2.87-1.38-2.87-3.429 0-4.034 3.613-4.766 7.032-4.766zm8.43 7.16c-.866-1.204-1.783-2.176-1.783-4.39V10.5c0-3.121.221-5.992-2.08-8.145C16.699.613 13.69 0 11.382 0 6.88 0 1.856 1.678.794 7.246c-.109.594.326.906.703.993l4.603.493c.42-.018.736-.439.82-.866.387-1.918 2.004-2.842 3.81-2.842.97 0 2.073.359 2.653 1.232.66.972.569 2.306.569 3.43v.608c-2.74.32-6.33.519-8.903 1.65C2.091 13.215 0 15.832 0 19.674c0 4.919 3.103 7.38 7.086 7.38 3.371 0 5.213-.794 7.808-3.444.86 1.247 1.142 1.856 2.715 3.161.355.189.805.167 1.12-.109l.014.008c.943-.834 2.657-2.338 3.629-3.143.384-.326.319-.834.01-1.258z"/></g></g></g></g></g></svg>