<svg xmlns="http://www.w3.org/2000/svg" width="151" height="48" viewBox="0 0 151 48"><g><g><g><path fill="#fff" d="M19.355 16.833v5.056H31.44c-.37 2.837-1.315 4.912-2.754 6.372-1.768 1.767-4.521 3.7-9.33 3.7-7.441 0-13.257-6.002-13.257-13.442S11.915 5.077 19.355 5.077c4.008 0 6.947 1.582 9.106 3.617l3.555-3.555c-3-2.92-7.03-5.139-12.66-5.139C9.16 0 .59 8.304.59 18.498s8.571 18.498 18.765 18.498c5.509 0 9.66-1.81 12.907-5.18 3.33-3.33 4.379-8.036 4.379-11.818 0-1.171-.083-2.26-.268-3.165z"/></g><g><path fill="#fff" d="M51.747 31.898c-3.617 0-6.742-2.98-6.742-7.234 0-4.296 3.125-7.235 6.742-7.235s6.741 2.94 6.741 7.235c0 4.255-3.124 7.234-6.741 7.234zm0-19.175c-6.598 0-11.983 5.014-11.983 11.94 0 6.866 5.385 11.942 11.983 11.942 6.597 0 11.982-5.056 11.982-11.941 0-6.927-5.385-11.941-11.982-11.941z"/></g><g><path fill="#fff" d="M104.465 31.898c-3.618 0-6.371-3.083-6.371-7.234 0-4.213 2.753-7.235 6.37-7.235 3.577 0 6.372 3.083 6.372 7.276.02 4.172-2.795 7.193-6.371 7.193zm6.022-16.503h-.185c-1.172-1.398-3.432-2.672-6.29-2.672-5.96 0-11.16 5.2-11.16 11.94 0 6.701 5.2 11.942 11.16 11.942 2.858 0 5.118-1.274 6.29-2.713h.185v1.665c0 4.563-2.446 7.008-6.371 7.008-3.207 0-5.2-2.302-6.022-4.254l-4.563 1.891c1.315 3.165 4.789 7.05 10.585 7.05 6.145 0 11.345-3.618 11.345-12.435V13.339h-4.974z"/></g><g><path fill="#fff" d="M78.466 31.898c-3.618 0-6.742-2.98-6.742-7.234 0-4.296 3.124-7.235 6.742-7.235 3.617 0 6.74 2.94 6.74 7.235 0 4.255-3.123 7.234-6.74 7.234zm0-19.175c-6.598 0-11.983 5.014-11.983 11.94 0 6.866 5.385 11.942 11.983 11.942 6.597 0 11.982-5.056 11.982-11.941 0-6.927-5.385-11.941-11.982-11.941z"/></g><g><path fill="#fff" d="M119.571.494h5.159v36.111h-5.159z"/></g><g><path fill="#fff" d="M140.289 17.203c2.117 0 3.925 1.09 4.521 2.631l-10.79 4.46c0-5.015 3.555-7.09 6.269-7.09zm.37 14.695c-2.672 0-4.563-1.212-5.796-3.617l15.97-6.598-.535-1.356c-.987-2.672-4.028-7.604-10.215-7.604-6.145 0-11.263 4.83-11.263 11.94 0 6.701 5.056 11.942 11.839 11.942 5.467 0 8.632-3.35 9.948-5.282l-4.07-2.713c-1.357 1.973-3.206 3.288-5.878 3.288z"/></g></g></g></svg>