<svg xmlns="http://www.w3.org/2000/svg" width="314" height="43" viewBox="0 0 314 43"><defs><clipPath id="6h6ta"><path d="M312.785 0l.586 42.544H.154L-.432 0z"/></clipPath><clipPath id="6h6tb"><path d="M312.785 0l.586 42.544H.154L-.432 0z"/></clipPath><clipPath id="6h6tc"><path d="M312.785 0l.586 42.544H.154L-.432 0z"/></clipPath><clipPath id="6h6td"><path d="M312.785 0l.586 42.544H.154L-.432 0z"/></clipPath><clipPath id="6h6te"><path d="M312.785 0l.586 42.544H.154L-.432 0z"/></clipPath><clipPath id="6h6tf"><path d="M312.785 0l.586 42.544H.154L-.432 0z"/></clipPath><clipPath id="6h6tg"><path d="M312.785 0l.586 42.544H.154L-.432 0z"/></clipPath><clipPath id="6h6th"><path d="M312.785 0l.586 42.544H.154L-.432 0z"/></clipPath><clipPath id="6h6ti"><path d="M312.785 0l.586 42.544H.154L-.432 0z"/></clipPath><clipPath id="6h6tj"><path d="M312.785 0l.586 42.544H.154L-.432 0z"/></clipPath><clipPath id="6h6tk"><path d="M312.785 0l.586 42.544H.154L-.432 0z"/></clipPath><clipPath id="6h6tl"><path d="M312.785 0l.586 42.544H.154L-.432 0z"/></clipPath><clipPath id="6h6tm"><path d="M312.785 0l.586 42.544H.154L-.432 0z"/></clipPath><clipPath id="6h6tn"><path d="M312.785 0l.586 42.544H.154L-.432 0z"/></clipPath></defs><g><g><g><g><g><path fill="#fff" d="M312.785 0l.586 42.544H.154L-.432 0z"/></g><g clip-path="url(#6h6ta)"><path fill="#fff" d="M19.5 0c.837.084 2.26.502 3.266 1.34 1.088 1.005 1.34 2.596 1.005 4.02-.335 1.256-.754 1.926-2.094 2.848-1.34.92-2.344 1.004-2.344 1.004v5.527l2.595 2.01-2.595 2.346v7.536s2.177-1.758 3.852-5.192c0 0 .083-.167.251-.586.167.921.084 2.847-1.005 5.192-.838 1.843-2.261 3.518-4.187 4.523-3.267 1.759-5.779 1.926-8.375 1.424-3.1-.586-5.947-2.261-7.789-5.193C.74 24.705.154 22.361.154 19.765c.084-5.109 4.02-9.464 8.543-11.14.586-.166.753-.334 1.507-.417-.335.25-.754.502-1.256.837-1.424.92-2.68 2.763-3.267 4.187l8.71-3.768v11.808L7.44 24.705c.838 1.09 3.266 2.68 5.36 2.932 3.517.419 5.863-.922 5.863-.922v-7.704l-2.597-2.261 2.597-2.01V9.211c-1.509-.167-3.602-.837-4.607-1.088-1.591-.335-6.783-1.76-7.62-1.926-.839-.084-1.844-.084-2.43.418-.586.503-1.005 1.508-.754 2.345.168.503.503.754.754 1.005 0 0-.335 0-.837-.335-1.005-.586-1.759-1.675-1.843-3.098A5.193 5.193 0 0 1 3.504 2.01C4.844 1.172 6.351.67 8.11.921c2.596.335 6.03 1.76 9.128 2.512 1.173.252 2.095.335 2.932-.083.419-.252 1.089-1.005.502-1.926C20.002.335 18.746.335 17.657.167 18.663 0 18.83 0 19.5 0M9.366 23.617V12.143l-3.769 1.508s-.92 1.926-.754 4.774c.084 2.26 1.424 4.857 2.43 6.03z"/></g></g></g><g><g><g><path fill="#fff" d="M312.785 0l.586 42.544H.154L-.432 0z"/></g><g clip-path="url(#6h6tb)"><path fill="#fff" d="M57.354 18.257l-7.789 5.527v1.34l4.02 3.434 4.773-3.6.168.25-8.543 6.533-4.94-4.271-1.591 1.256-.252-.251 1.592-1.256V16.33l4.187-2.177 4.439-2.596zm-7.789-4.188v9.38l4.02-2.847z"/></g></g></g><g><g><g><path fill="#fff" d="M312.785 0l.586 42.544H.154L-.432 0z"/></g><g clip-path="url(#6h6tc)"><path fill="#fff" d="M30.973 36.011c1.089.251 3.099.42 5.527-.753 2.68-1.256 3.686-4.02 3.686-6.783l.084-3.937v-8.71l1.674-1.256-.167-.25-1.675 1.255L36.5 11.39l-5.527 4.103V1.591l-5.61 4.607c.25.167 1.506.335 1.506 1.507v19.514l-2.931 1.842.168.25 1.256-.92 3.518 3.182 5.527-4.272-.168-.25-1.34 1.005-1.842-1.257V15.912l2.177-1.34 3.015 3.099v9.38c0 2.512-.67 5.443-2.01 6.951-1.34 1.507-1.842 1.591-3.266 2.01"/></g></g></g><g><g><g><path fill="#fff" d="M312.785 0l.586 42.544H.154L-.432 0z"/></g><g clip-path="url(#6h6td)"><path fill="#fff" d="M69.33 35.006c-2.178-.25-3.099-1.507-3.099-2.596 0-.669.67-1.926 2.01-2.093 1.34-.168 2.68.419 3.853 1.758l5.108-5.444-.251-.25-1.34 1.507c-1.424-1.508-3.098-2.513-5.109-2.764V8.46l12.98 23.365s.336.25.923.25c.502 0 .335-.333.335-.333V8.208c1.088 0 2.512-.587 3.349-1.424 2.512-2.513 1.508-5.277 1.256-5.612-.167 1.173-1.088 2.43-2.68 2.43-2.093 0-3.35-1.509-3.35-1.509L78.04 7.79l.252.25 1.423-1.59c1.76 1.59 2.764 1.759 4.104 1.842v13.651L74.355 4.606c-.921-1.424-2.261-2.68-4.356-2.68-2.428 0-4.187 2.094-4.438 3.853-.251 2.01 0 2.512 0 2.512s.335-2.261 1.76-2.261c1.255 0 1.673.67 2.26 1.508v5.526c-1.34.084-4.522.252-4.774 3.77 0 1.34.838 2.679 1.59 3.098.923.586 1.676.586 1.676.586s-1.088-.586-.753-1.758c.335-1.005 2.261-1.173 2.344-.754v7.034c-1.088 0-4.187.084-5.778 2.932-.921 1.675-.837 3.6.084 4.941.837 1.172 2.512 2.596 5.36 2.093"/></g></g></g><g><g><g><path fill="#fff" d="M312.785 0l.586 42.544H.154L-.432 0z"/></g><g clip-path="url(#6h6te)"><path fill="#fff" d="M101.237 18.174L93.45 23.7v1.34l3.853 3.518 4.773-3.6.167.25-8.541 6.533-4.607-4.271-1.591 1.256-.251-.251 1.591-1.256V16.33l3.936-2.177 4.523-2.596zm-8.123-4.105v9.38l4.355-2.847z"/></g></g></g><g><g><g><path fill="#fff" d="M312.785 0l.586 42.544H.154L-.432 0z"/></g><g clip-path="url(#6h6tf)"><path fill="#fff" d="M109.36 31.992l-4.186-3.35-1.843 1.256-.168-.251 1.844-1.34v-9.463c.083-3.854-3.686-2.931-3.435-7.036.084-1.842 1.926-3.182 2.849-3.6 1.004-.503 2.009-.503 2.009-.503s-1.758 1.005-1.34 2.512c.67 2.345 4.69 2.513 4.774 5.611v10.72l2.596 2.345.753-.586V16.666l-1.172-1.592 4.188-3.601 3.852 3.266-1.76 1.509v10.3l3.853 2.848.67-.42v-12.31l-1.591-1.508 4.187-3.685 3.937 3.1 1.59-1.34.169.25-3.517 3.016v10.05l-8.962 5.359-4.606-3.433z"/></g></g></g><g><g><g><g><path fill="#fff" d="M312.785 0l.586 42.544H.154L-.432 0z"/></g><g clip-path="url(#6h6tg)"><path fill="#fff" d="M297.291 18.174l-7.788 5.526v1.34l3.936 3.518 4.773-3.6.168.25-8.542 6.533-4.94-4.271-1.592 1.256-.252-.251 1.76-1.256V16.33l4.103-2.177 4.522-2.596zm-8.207-4.105v9.38l4.439-2.847z"/></g></g></g><g><path fill="#fff" d="M245.703 7.37l3.015 3.182 3.768-3.266-3.014-3.266zm10.97 20.1l-.166-.251-1.509 1.256-2.009-2.262V16.08l1.758-1.423-.25-.252-1.676 1.424-3.601-4.103-5.36 4.188.67.166 1.34-1.089 2.178 2.43v10.3l-1.507 1.257.167.25 1.59-1.34 3.435 3.854zm7.287-11.81l.921-.753 2.429 3.015v8.962l-.753 1.004 3.517 3.769 3.768-3.601-1.507-1.425V15.744l1.088-.837 3.1 2.932v8.96l-1.257.838 3.936 4.104 5.192-4.606-.25-.252-1.257 1.089-2.177-2.01V15.743l2.093-1.423-.167-.252-1.926 1.424-3.517-3.852-5.026 3.852-3.601-3.685-4.858 3.685-3.6-3.685-5.193 4.355.167.251 1.676-1.34 2.345 2.597v9.044l-1.173 1.006 3.77 4.103 3.851-3.684-1.59-1.592z"/></g></g><g><g><g><path fill="#fff" d="M312.785 0l.586 42.544H.154L-.432 0z"/></g><g clip-path="url(#6h6th)"><path fill="#fff" d="M239.003 0c.921.084 2.261.502 3.266 1.34 1.09 1.005 1.34 2.596 1.005 4.02-.335 1.256-.754 1.926-2.094 2.848-1.34.92-2.344.837-2.344.837v5.527l2.512 2.178-2.512 2.177v7.453s2.093-1.507 3.852-4.941c0 0 .083-.167.251-.586.167.921.084 2.847-1.005 5.192-.837 1.843-2.261 3.518-4.187 4.523-3.267 1.759-5.779 1.926-8.375 1.424-3.098-.586-5.947-2.261-7.789-5.192-1.34-2.095-1.926-4.439-1.926-7.035.084-5.109 4.02-9.464 8.543-11.14.502-.166.753-.334 1.507-.417-.335.25-.754.502-1.256.837-1.424.92-2.68 2.763-3.266 4.187l8.625-3.601v11.808l-6.867 3.266c.838 1.09 3.266 2.68 5.36 2.932 3.518.419 5.779-1.089 5.779-1.089v-7.704l-2.512-2.178 2.512-2.178V8.961c-1.507-.167-3.434-.67-4.523-.921-1.59-.335-6.783-1.758-7.62-1.926-.838-.084-1.843-.084-2.43.419-.586.502-1.005 1.507-.754 2.344.168.503.503.754.754 1.005 0 0-.335 0-.837-.335-1.005-.586-1.759-1.674-1.843-3.098a5.193 5.193 0 0 1 2.178-4.523c1.34-.837 2.848-1.34 4.606-1.089 2.596.335 6.03 1.76 9.129 2.513 1.172.251 2.094.335 2.93-.084.42-.25 1.09-1.005.503-1.926-.67-1.089-1.926-1.089-3.014-1.256C238.08 0 238.333 0 239.003 0m-10.05 23.617V12.143l-3.517 1.508s-.921 1.926-.754 4.774c.084 2.26 1.424 4.857 2.429 6.03z"/></g></g></g><g><g><g><path fill="#fff" d="M312.785 0l.586 42.544H.154L-.432 0z"/></g><g clip-path="url(#6h6ti)"><path fill="#fff" d="M302.987 33.248c-.587.167-3.015-.419-3.602-2.931-.585-2.43 1.173-4.02 3.769-6.617l-3.098-2.763v-5.193s2.26-1.088 4.019-2.177l3.601-2.261s1.34 1.591 2.848 1.507c2.345-.167 2.26-2.01 2.177-2.428.419.67 1.508 2.763-2.68 7.37l3.35 2.596v6.784s-3.853 1.926-7.62 4.606c0 0-2.095-2.513-3.853-1.34-1.172.92-.586 2.261 1.088 2.847M304.913 25.794c2.93.586 4.27 3.602 4.27 3.602v-6.868l-2.428-1.675c-2.177 2.178-6.197 5.276-6.7 7.203.007-.01 1.764-2.847 4.858-2.262zm-.754-12.06v5.444l2.345 1.592s4.02-3.183 5.527-6.03c0 0-1.842 2.429-4.27 1.675-2.095-.587-3.1-2.597-3.1-2.597"/></g></g></g><g><g><g><path fill="#fff" d="M312.785 0l.586 42.544H.154L-.432 0z"/></g><g clip-path="url(#6h6tj)"><path fill="#fff" d="M176.946 16.08l1.507-1.34.251.25-1.842 1.34v10.805l-4.355 2.512-4.02 2.345-5.108-4.187-1.34 1.172-.251-.251 1.758-1.172V15.828h-.251l4.438-2.177 3.853-2.178zm-9.297 9.463l4.356 3.769V17.755l-4.356-3.853z"/></g></g></g><g><g><g><path fill="#fff" d="M312.785 0l.586 42.544H.154L-.432 0z"/></g><g clip-path="url(#6h6tk)"><path fill="#fff" d="M187.08 14.99l3.265-3.265s.42.418.837.586c.253.084 1.257.586 2.095.084.502-.252.586-.335 1.089-.838.083 2.512-1.173 4.271-2.68 5.026-.67.335-2.848.837-4.858-1.425V26.8l2.428 1.759 1.76-1.34.166.252-5.359 4.354-4.103-3.601-1.509 1.34-.25-.251 1.842-1.926V17.42l-1.34-2.178-1.508 1.257-.25-.251 5.192-4.523z"/></g></g></g><g><g><g><path fill="#fff" d="M312.785 0l.586 42.544H.154L-.432 0z"/></g><g clip-path="url(#6h6tl)"><path fill="#fff" d="M200.814 19.848l6.03-8.458s.837.921 2.177 1.256c1.842.502 3.517-1.256 3.517-1.256-.335 2.261-1.507 4.858-3.936 5.276-2.177.335-4.187-1.257-4.187-1.257l-.418.586 8.374 12.228 1.675-1.424.252.251-5.779 4.858z"/></g></g></g><g><g><g><path fill="#fff" d="M312.785 0l.586 42.544H.154L-.432 0z"/></g><g clip-path="url(#6h6tm)"><path fill="#fff" d="M196.124 8.459c0-1.843-1.09-2.931-2.093-2.847l6.28-4.44v25.292l2.01 1.759 1.34-1.088.252.25-5.277 4.439-3.601-3.266-1.423 1.256-.251-.251 2.847-2.093V8.459z"/></g></g></g><g><g><g><path fill="#fff" d="M312.785 0l.586 42.544H.154L-.432 0z"/></g><g clip-path="url(#6h6tn)"><path fill="#fff" d="M140.85 8.04c0-1.675-.753-2.68-1.842-2.68-1.676 0-2.094 2.26-2.094 2.26s-.335-1.757 1.257-3.349c.837-.92 2.428-2.178 4.941-1.59 2.595.585 3.6 2.511 3.6 4.27v23.533c.443.107.89.191 1.34.252a8.281 8.281 0 0 1 1.174.335V2.763h.837v3.853l5.108-4.104 3.853 3.35 1.842-1.508.168.252-1.842 1.592v21.858c-.084 1.424-.335 2.847-1.76 3.685-3.098 1.758-6.867-.252-10.217-.754-2.512-.335-6.364-.838-7.37 1.423-.334.754-.334 1.843.838 2.596 2.261 1.424 12.311-2.428 15.744-.92 3.1 1.423 3.1 3.685 2.68 5.192-.838 2.847-4.606 3.433-4.606 3.433s1.842-1.004 1.34-2.763c-.25-.837-.837-1.09-2.847-.921-4.271.502-9.464 2.512-12.897 1.089-1.76-.754-3.016-2.849-2.931-5.026.084-3.015 3.768-4.271 3.768-4.271V19.513c-.083-.418-2.01-.335-2.512.503-.67 1.256.837 1.842.837 1.842s-1.172.168-2.178-.921c-.502-.502-1.507-2.428-.166-4.271 1.088-1.508 2.428-1.759 4.103-1.927zm9.213 23.114s1.507.419 2.68-.502c1.256-1.005.67-2.345.67-2.345v-8.71s-.335-.921-1.424-.921c-1.172 0-1.926.92-1.926.92zm3.35-22.946l-2.094-2.178-1.256.92v8.124s.754.921 1.926.921 1.424-.92 1.424-.92zm.167 7.37s-.754.837-1.842.837c-1.173 0-1.675-.838-1.675-.838v3.434s.502-.837 1.675-.837c1.172 0 1.842.753 1.842.753z"/></g></g></g></g></g></svg>