<svg xmlns="http://www.w3.org/2000/svg" width="164" height="63" viewBox="0 0 164 63"><g><g><g><path fill="#fff" d="M134.118 20.106a9.076 9.076 0 0 1 9.087 9.086c0 5.014-4.074 9.087-9.087 9.087s-9.087-4.073-9.087-9.087c0-5.013 4.074-9.086 9.087-9.086m0 13.734c2.585 0 4.674-2.089 4.648-4.648a4.658 4.658 0 0 0-4.648-4.648 4.641 4.641 0 0 0-4.648 4.648 4.658 4.658 0 0 0 4.648 4.648"/></g><g><path fill="#fff" d="M92.392 20.106c5.014 0 9.061 4.047 9.087 9.086 0 5.014-4.073 9.087-9.087 9.087-5.013 0-9.086-4.073-9.086-9.087 0-5.013 4.073-9.086 9.086-9.086m0 13.734a4.658 4.658 0 0 0 4.648-4.648 4.658 4.658 0 0 0-4.648-4.648 4.641 4.641 0 0 0-4.647 4.648 4.658 4.658 0 0 0 4.647 4.648"/></g><g><path fill="#fff" d="M124.457 34.101c-.575.157-1.462.34-1.776.34-1.566 0-1.88-.549-1.88-2.011v-8.408h3.708v-3.499h-3.708v-4.96h-4.177l-.888 4.96h-3.134c-2.376 0-4.177 1.462-5.326 3.734l-1.436-3.734h-3.003V37.94h5.118v-7.572c0-3.812 2.271-6.267 4.935-6.345h2.794v8.669c0 4.073 2.088 5.588 5.483 5.588 1.75 0 3.107-.366 3.917-.627z"/></g><g><path fill="#fff" d="M149.42 26.007v11.932h-4.988V20.497h3.029l1.018 2.663"/></g><g><path fill="#fff" d="M148.453 23.187c1.514-1.75 3.577-3.081 6.005-3.081 4.152 0 5.85 3.316 5.85 6.37V37.94h-5.118V26.633c0-1.488-1.254-2.297-2.585-2.297-1.436 0-2.35.835-3.16 1.697"/></g><g><path fill="#fff" d="M63.435 14.204h5.719l7.833 14.91v-14.91h4.726V37.94h-5.17l-8.382-16.424V37.94h-4.726z"/></g><g><path fill="#fff" d="M160.307 20.523v.34h.47v1.645h.392v-1.645h.496v-.34z"/></g><g><path fill="#fff" d="M163.154 20.523l-.34 1.306-.366-1.306h-.522v1.985h.34V20.94l.418 1.567h.26l.418-1.567v1.567h.314v-1.985z"/></g><g><path fill="#fff" d="M64.898 55.643l-.366 1.122h-.94V43.736h1.645v4.752c.548-.6 1.436-1.227 2.559-1.227 2.48 0 3.577 2.454 3.577 4.674 0 2.977-1.54 4.987-3.838 4.987-1.201 0-2.01-.496-2.637-1.28m4.726-3.707c0-1.515-.47-3.29-2.194-3.29-.81 0-1.54.365-2.193 1.044v4.988c.6.652 1.149.992 1.984.992 1.541-.026 2.403-1.358 2.403-3.734"/></g><g><path fill="#fff" d="M72.418 47.444h1.67s2.35 7.86 2.35 7.885l2.194-7.885h1.619L77.118 57.47c-.549 1.724-1.463 2.69-3.264 2.69a4.16 4.16 0 0 1-1.123-.157l.209-1.175c.235.026.47.105.783.105.966 0 1.697-.444 2.063-1.593z"/></g><g><path fill="#fff" d="M85.134 55.408l.809-1.15c.81.601 1.958 1.254 3.682 1.254 1.697 0 2.69-.81 2.69-2.22 0-1.566-1.202-2.062-2.925-2.663-1.854-.652-3.551-1.488-3.551-3.864 0-2.115 1.67-3.264 3.864-3.264 1.567 0 2.48.261 3.499.836l-.679 1.253c-.81-.444-1.671-.705-2.846-.705-1.384 0-2.324.548-2.324 1.854 0 1.384.914 1.828 2.82 2.506 1.828.627 3.76 1.437 3.76 3.995 0 2.272-1.619 3.63-4.282 3.63-2.167.052-3.656-.731-4.517-1.462"/></g><g><path fill="#fff" d="M94.873 47.444h1.671s2.35 7.86 2.35 7.885l2.193-7.885h1.62L99.572 57.47c-.548 1.724-1.462 2.69-3.264 2.69a4.16 4.16 0 0 1-1.123-.157l.21-1.175c.234.026.47.105.783.105.966 0 1.697-.444 2.062-1.593z"/></g><g><path fill="#fff" d="M114.274 47.261c1.88 0 2.376 1.593 2.376 3.133v6.371h-1.645v-6.37c0-.915-.157-1.75-1.28-1.75-.757 0-1.566.47-2.376 1.28v6.84h-1.645v-6.37c0-.915-.156-1.75-1.28-1.75-.783 0-1.618.548-2.375 1.305v6.815h-1.645v-9.321h.966l.418 1.514c.861-.94 1.906-1.697 3.159-1.697s1.776.679 2.141 1.619c.862-.966 1.985-1.619 3.186-1.619"/></g><g><path fill="#fff" d="M124.248 50.473c0-1.254-.392-1.88-1.75-1.88-.94 0-1.775.365-2.663.81l-.6-1.098c.966-.6 2.01-1.044 3.368-1.044 2.324 0 3.238 1.253 3.238 3.342v6.189h-.94l-.418-1.123c-.653.653-1.671 1.253-2.872 1.253-1.645 0-2.846-1.018-2.846-2.585 0-1.018.391-1.75 1.253-2.272.836-.522 2.324-.887 4.23-1.175v-.417zm0 1.488c-1.854.34-3.055.731-3.525 1.306-.235.287-.287.548-.287.94 0 .913.444 1.436 1.436 1.436.94 0 1.775-.47 2.376-.914z"/></g><g><path fill="#fff" d="M128.582 47.444h.967l.417 1.54c.862-.966 1.959-1.723 3.343-1.723 2.01 0 2.532 1.593 2.532 3.133v6.371h-1.645v-6.37c0-.915-.235-1.75-1.436-1.75-.862 0-1.775.548-2.533 1.332v6.788h-1.645v-9.321z"/></g><g><path fill="#fff" d="M137.59 48.593v-1.15h1.437l.418-2.663h1.175v2.664h2.089v1.149h-2.09v5.744c0 .862.157 1.332 1.045 1.332.366 0 .653-.079 1.07-.183l.236 1.123c-.366.156-.94.287-1.515.287-1.697 0-2.454-.81-2.454-2.48v-5.85h-1.41z"/></g><g><path fill="#fff" d="M148.244 55.616c1.07 0 1.75-.417 2.533-.913l.679.992c-.914.731-1.75 1.227-3.369 1.227-2.402 0-3.942-1.854-3.942-4.804 0-2.873 1.488-4.857 3.812-4.857 2.402 0 3.682 1.802 3.682 4.909v.392h-5.797c.13 1.984.835 3.054 2.402 3.054m1.776-4.151c-.052-1.958-.705-2.977-2.01-2.977-1.176 0-1.96.914-2.09 2.977z"/></g><g><path fill="#fff" d="M153.153 52.17c0-2.402 1.07-4.909 3.943-4.909 1.2 0 2.089.287 2.924.992l-.705 1.097c-.6-.444-1.306-.757-2.193-.757-1.959 0-2.246 2.01-2.246 3.603 0 1.54.34 3.42 2.298 3.42.94 0 1.593-.365 2.22-.887l.783.966c-.68.679-1.62 1.253-3.081 1.253-2.847-.026-3.943-2.454-3.943-4.778"/></g><g><path fill="#fff" d="M28.055 62.85C13.067 62.85.847 50.63.847 35.641c0-15.014 12.22-27.208 27.208-27.208 14.988 0 27.208 12.194 27.208 27.208 0 14.987-12.22 27.207-27.208 27.207m0-45.825a18.489 18.489 0 0 0-13.16 5.458 18.489 18.489 0 0 0-5.457 13.16c0 4.96 1.932 9.635 5.457 13.16a18.489 18.489 0 0 0 13.16 5.457c4.96 0 9.635-1.932 13.16-5.457a18.708 18.708 0 0 0 5.457-13.16c0-4.962-1.932-9.635-5.457-13.16-3.525-3.5-8.2-5.458-13.16-5.458"/></g><g><path fill="#fff" d="M57.69 6.345V4.23h2.116v2.115z"/></g><g><path fill="#fff" d="M57.69 2.115V0h2.116v2.115z"/></g><g><path fill="#fff" d="M51.738 8.408V6.345h1.984v2.063z"/></g><g><path fill="#fff" d="M47.795 12.403v-1.985h2.01v1.985z"/></g><g><path fill="#fff" d="M53.696 10.392V8.408h2.22v1.984z"/></g><g><path fill="#fff" d="M45.81 10.418V8.512h1.985v1.906z"/></g><g><path fill="#fff" d="M51.738 12.403v-1.985h1.984v1.985z"/></g><g><path fill="#fff" d="M55.602 4.256V2.141h2.089v2.115z"/></g><g><path fill="#fff" d="M51.738 6.345V4.23h3.864v2.115z"/></g><g><path fill="#fff" d="M49.805 10.418V6.345h1.933v4.073z"/></g><g><path fill="#fff" d="M49.805 12.403v1.984h-2.01v-1.984h-3.316v1.436h-1.776v1.775h1.985V17.6h-1.985v-1.985h-2.115v3.108h-1.984v1.984h-1.332v1.984H35.81c-1.645 2.429-5.719 10.001-6.972 13.082-4.465-6.214-7.938-8.669-10.653-9.557-1.462-.443-3.238 1.15-.81 3.682 5.614 6.188 7.39 11.28 9.087 15.38.914 2.14 4.961 2.48 5.77.287 1.724-4.622 4.23-9.844 7.207-14.1v-2.22h1.593V27.26h1.671v-2.324h1.985v-2.22h-2.011V20.68h2.01v2.037h1.959v-2.011h1.567v-2.428h1.775v-1.671h1.697v-4.204z"/></g></g></g></svg>