<svg xmlns="http://www.w3.org/2000/svg" width="28" height="22" viewBox="0 0 28 22"><g><g><path fill="#f56441" d="M27.712 2.551a11.807 11.807 0 0 1-3.278.868 5.569 5.569 0 0 0 2.51-3.055 11.6 11.6 0 0 1-3.624 1.341 5.785 5.785 0 0 0-4.166-1.744c-3.152 0-5.707 2.473-5.707 5.52 0 .431.05.853.148 1.26C8.852 6.507 4.648 4.31 1.833.97a5.363 5.363 0 0 0-.773 2.777c0 1.914 1.008 3.603 2.539 4.593a5.842 5.842 0 0 1-2.585-.69v.069c0 2.675 1.966 4.905 4.577 5.41a5.82 5.82 0 0 1-2.577.096c.726 2.193 2.834 3.79 5.331 3.833a11.686 11.686 0 0 1-7.088 2.363 11.8 11.8 0 0 1-1.36-.077 16.54 16.54 0 0 0 8.748 2.48c10.496 0 16.236-8.409 16.236-15.703 0-.24-.005-.48-.016-.715a11.422 11.422 0 0 0 2.847-2.856z"/></g></g></svg>