<svg xmlns="http://www.w3.org/2000/svg" width="621" height="876" viewBox="0 0 621 876"><g><g><path fill="#c3adff" d="M602.364 365.625c0 .768-.619 1.387-1.387 1.387s-1.387-.619-1.387-1.387.62-1.387 1.387-1.387c.768 0 1.387.62 1.387 1.387z"/></g><g><path fill="#c3adff" d="M620.551 404.648a1.39 1.39 0 0 1-2.778 0 1.39 1.39 0 1 1 2.778 0z"/></g><g><path fill="#c3adff" d="M122.051 140.743c0 .768-.622 1.387-1.39 1.387a1.387 1.387 0 0 1 0-2.774c.768 0 1.39.619 1.39 1.387z"/></g><g><path fill="#c3adff" d="M428.825 437.631c0 .768-.623 1.387-1.391 1.387a1.387 1.387 0 1 1 0-2.774c.768 0 1.39.62 1.39 1.387z"/></g><g><path fill="#c3adff" d="M184.3 630.565a1.39 1.39 0 0 1-2.778 0 1.39 1.39 0 1 1 2.778 0z"/></g><g><path fill="#c3adff" d="M349.62 872.921a1.39 1.39 0 0 1-2.776 0 1.39 1.39 0 1 1 2.777 0z"/></g><g><path fill="#c3adff" d="M185.69 325.666a1.39 1.39 0 1 1-1.39-1.387c.768 0 1.39.622 1.39 1.387z"/></g><g><path fill="#c3adff" d="M142.378 272.445a1.387 1.387 0 1 1-1.387-1.387c.765 0 1.387.619 1.387 1.387z"/></g><g><path fill="#c3adff" d="M520.238 622.571a1.389 1.389 0 1 1-2.778-.004 1.389 1.389 0 0 1 2.778.004z"/></g><g><path fill="#c3adff" d="M556.86 645.233a1.388 1.388 0 1 1-2.775.006 1.388 1.388 0 0 1 2.775-.006z"/></g><g><path fill="#c3adff" d="M531.566 859.373c0 .767-.62 1.387-1.387 1.387-.768 0-1.387-.62-1.387-1.387 0-.768.619-1.387 1.387-1.387.767 0 1.387.619 1.387 1.387z"/></g><g><path fill="#c3adff" d="M335.596 767.43a1.39 1.39 0 1 1-2.778 0 1.39 1.39 0 0 1 2.778 0z"/></g><g><path fill="#c3adff" d="M555.473 601.476a1.389 1.389 0 1 1-2.778-.004 1.389 1.389 0 0 1 2.778.004z"/></g><g><path fill="#c3adff" d="M36.117 367.012a1.388 1.388 0 1 1-2.776.006 1.388 1.388 0 0 1 2.776-.006z"/></g><g><path fill="#c3adff" d="M593.005 508.925a1.39 1.39 0 1 1-1.39-1.387c.767 0 1.39.622 1.39 1.387z"/></g><g><path fill="#c3adff" d="M391 874.308c0 .768-.623 1.387-1.391 1.387a1.387 1.387 0 1 1 0-2.774c.768 0 1.39.619 1.39 1.387z"/></g><g><path fill="#c3adff" d="M213.198 742.43a1.387 1.387 0 1 1-2.774 0 1.387 1.387 0 1 1 2.774 0z"/></g><g><path fill="#c3adff" d="M603.755 684.584c0 .768-.623 1.387-1.39 1.387a1.387 1.387 0 1 1 0-2.774c.767 0 1.39.62 1.39 1.387z"/></g><g><path fill="#c3adff" d="M34.947 643.846c0 .768-.622 1.387-1.39 1.387a1.387 1.387 0 1 1 0-2.774c.768 0 1.39.62 1.39 1.387z"/></g><g><path fill="#c3adff" d="M3.265 629.174a1.387 1.387 0 1 1-1.387-1.387c.768 0 1.387.623 1.387 1.387z"/></g><g><path fill="#c3adff" d="M4.655 341.313a1.39 1.39 0 1 1-1.39-1.387c.768 0 1.39.623 1.39 1.387z"/></g><g><path fill="#c3adff" d="M477.92 39.69a1.39 1.39 0 1 1-2.778 0 1.39 1.39 0 0 1 2.777 0z"/></g><g><path fill="#c3adff" d="M235.573 18.242a1.39 1.39 0 0 1-2.777 0 1.39 1.39 0 1 1 2.777 0z"/></g><g><path fill="#c3adff" d="M529.836 1.802a1.39 1.39 0 0 1-2.777 0 1.39 1.39 0 1 1 2.777 0z"/></g><g><path fill="#c3adff" d="M351.008 209.618a1.388 1.388 0 1 1-1.387-1.387c.765 0 1.387.62 1.387 1.387z"/></g></g></svg>